<svg version="1.2" baseProfile="tiny-ps" xmlns="http://www.w3.org/2000/svg" viewBox="0 0 490 490" width="490" height="490">
	<title>sic-mundus-svg</title>
	<style>
		tspan { white-space:pre }
		.shp0 { fill: #FFFFFF } 
	</style>
	<g id="Layer">
		<path id="Layer" class="shp0" d="M246 12C246.9 12.5 251.4 16.2 256 20.3C286.7 47 309.4 84.3 319.5 124.2C324.5 144.1 327.2 175.1 325.4 190.6L324.8 195.7L315.4 192.7L306 189.6L306 175.5C306 126.4 287.1 79.7 253.3 45L245 36.5L236.2 45.5C205.6 77.2 187.9 116.7 183.9 162.1C179.6 211.2 199.2 267 233.3 302.6L242.4 312.2L238.4 315.6C236.3 317.4 232.8 320.2 230.7 321.6L226.9 324.3L221.9 319.4C202.9 300.9 183.9 269.3 174.5 240.8C149.7 164.9 169.3 83.1 225.7 27.8C230 23.6 236 18.2 239 15.7C242.9 12.6 245 11.5 246 12Z" />
		<path id="Layer" class="shp0" d="M290.5 189.1C343.3 200.6 392.4 235.2 421 281C435.9 304.8 447.1 335.7 450.6 362.6L451.2 367.7L442.4 371C406 384.2 359.8 386.8 322.9 377.5C300.9 372 276.4 361.3 257.7 349L247.9 342.6L254.7 336.3C258.4 332.9 262 330.1 262.7 330C263.4 330 267 332 270.7 334.4C291.8 348 318.7 357.9 346 362.1C358 364 387.1 363.7 399.5 361.6C408.8 360.1 427.9 355.5 428.8 354.5C429.5 353.8 426.1 340.5 422.5 329.9C412.2 300.2 391.3 269.3 368.1 249.5C345.7 230.4 318.3 216.2 291 209.4C261.5 202.1 227.7 202 199.4 209.1C194.7 210.3 190.8 211.1 190.6 210.9C190.4 210.7 189.5 206.3 188.7 201.2L187.3 192L190.9 191C200 188.7 209.6 186.8 219.2 185.6C240.8 182.8 267.6 184.1 290.5 189.1Z" />
		<path id="Layer" class="shp0" d="M161.5 201.1L162.7 206.8C163.3 209.9 164.1 214.3 164.5 216.6L165.1 220.7L154.3 226.7C120.5 245.7 94 273.6 76.4 309C70.8 320.2 63 342.3 61.5 350.7L60.8 354.9L66.2 356.5C113.8 370.7 169.4 363.6 213.1 337.7C256.5 312.1 288.6 269.1 301 220.3L302 216.1L307.3 218C316.6 221.2 320 223 320 224.5C320 227.6 311.1 252.9 306.7 262.2C279.6 320.3 229.5 361.7 168 377C128.5 386.9 83.6 384.6 47.2 370.8L38.8 367.7L39.5 362.1C41.6 344.6 48.8 320.7 57.2 302.8C77.1 261.2 108.2 229 149.4 207.4L161.5 201.1Z" />
	</g>
</svg>