 <svg version="1.0" xmlns="http://www.w3.org/2000/svg"  width="450.000000pt" height="450.000000pt" viewBox="0 0 450.000000 450.000000"  preserveAspectRatio="xMidYMid meet">  <g transform="translate(0.000000,450.000000) scale(0.100000,-0.100000)" fill="#000000" stroke="none"> <path d="M2210 4073 c-30 -25 -90 -79 -133 -121 -564 -553 -760 -1371 -512 -2130 94 -285 284 -601 474 -786 l50 -49 38 27 c21 14 56 42 77 60 l40 34 -91 96 c-341 356 -537 914 -494 1405 40 454 217 849 523 1166 l88 90 83 -85 c338 -347 527 -814 527 -1305 l0 -141 94 -31 94 -30 6 51 c18 155 -9 465 -59 664 -101 399 -328 772 -635 1039 -46 41 -91 78 -100 83 -10 5 -31 -6 -70 -37z"/> <path d="M2012 2374 c-96 -12 -192 -31 -283 -54 l-36 -10 14 -92 c8 -51 17 -95 19 -97 2 -2 41 6 88 18 283 71 621 70 916 -3 273 -68 547 -210 771 -401 232 -198 441 -507 544 -804 36 -106 70 -239 63 -246 -9 -10 -200 -56 -293 -71 -124 -21 -415 -24 -535 -5 -273 42 -542 141 -753 277 -37 24 -73 44 -80 44 -7 -1 -43 -29 -80 -63 l-68 -63 98 -64 c187 -123 432 -230 652 -285 369 -93 831 -67 1195 65 l88 33 -6 51 c-35 269 -147 578 -296 816 -286 458 -777 804 -1305 919 -229 50 -497 63 -713 35z"/> <path d="M1314 2156 c-412 -216 -723 -538 -922 -954 -84 -179 -156 -418 -177 -593 l-7 -56 84 -31 c364 -138 813 -161 1208 -62 615 153 1116 567 1387 1148 44 93 133 346 133 377 0 15 -34 33 -127 65 l-53 19 -10 -42 c-124 -488 -445 -918 -879 -1174 -437 -259 -993 -330 -1469 -188 l-54 16 7 42 c15 84 93 305 149 417 176 354 441 633 779 823 l108 60 -6 41 c-4 23 -12 67 -18 98 l-12 57 -121 -63z"/> </g> </svg> 